<?xml version="1.0" standalone="no"?><!DOCTYPE svg PUBLIC "-//W3C//DTD SVG 1.1//EN" "http://www.w3.org/Graphics/SVG/1.1/DTD/svg11.dtd"><svg t="1751732022967" class="icon" viewBox="0 0 1024 1024" version="1.1" xmlns="http://www.w3.org/2000/svg" p-id="1894" xmlns:xlink="http://www.w3.org/1999/xlink" width="200" height="200"><path d="M1023.578353 510.828758c0 280.997647-227.796497 508.787451-508.794144 508.787451-281.00434 0-508.800837-227.789804-508.800836-508.787451S233.779869 2.034614 514.784209 2.034614c280.997647 0 508.787451 227.796497 508.787451 508.787451" fill="#F27BFF" p-id="1895"></path><path d="M514.777516 268.66949c-133.521569 0-242.152575 108.631007-242.152575 242.159268 0 133.521569 108.631007 242.152575 242.152575 242.152575 133.528261 0 242.159268-108.624314 242.159268-242.145882 0-133.534954-108.631007-242.165961-242.159268-242.165961m0 619.111739c-207.851922 0-376.952471-169.100549-376.95247-376.952471 0-207.851922 169.100549-376.959163 376.95247-376.959163 207.851922 0 376.959163 169.107242 376.959164 376.959163s-169.107242 376.952471-376.959164 376.952471" fill="#6343FF" p-id="1896"></path><path d="M423.962771 545.885699s37.29234 47.31817-15.534013 101.777569c-39.353725 40.551739-72.911477 42.452497-100.599634 78.439739 0 0-22.153203 33.236497 2.764131 60.924653 24.924026 27.688157 81.223948 15.687948 101.523242-41.535582 20.305987-57.223529 59.070745-130.128314 173.511111-158.740078l-161.664837-40.866301z" fill="#EC69FF" p-id="1897"></path><path d="M682.318641 502.743843c-77.757072 83.961307-193.428915 103.270065-258.35587 43.135164-64.926954-60.134902-54.526327-176.944523 23.230745-260.899138 77.763765-83.961307 193.428915-103.270065 258.35587-43.135163 64.933647 60.128209 54.526327 176.93783-23.230745 260.899137" fill="#EDA4FF" p-id="1898"></path><path d="M705.395451 241.11519c-64.920261-60.134902-180.598797-40.826144-258.355869 43.135163-76.385046 82.46881-87.595503 196.500915-26.436602 257.519268 0 0 2.288941 2.603503 6.980602 12.127372 11.464784 28.491294 11.866353 53.428706-19.342223 92.84936-35.070327 44.306405-72.91817 42.45919-100.592941 78.453124 0 0-22.153203 33.223111 2.757438 60.904575 1.298405 1.445647 2.697203 2.757438 4.156236 3.982223 25.519686 0.307869 54.921203-17.722562 68.420601-55.764497 19.964654-56.259765 57.825882-127.651974 167.855686-157.234196l-0.087006-0.020079c45.952837-8.312471 93.244235-33.83885 131.40664-75.053176 77.770458-83.954614 88.164392-200.764235 23.237438-260.899137" fill="#F8A4FF" p-id="1899"></path><path d="M655.293072 475.818667c-65.074196 70.254431-160.259346 87.910065-212.603817 39.434039-52.337778-48.482719-42.024157-144.738719 23.043346-214.99315 65.067503-70.254431 160.252654-87.910065 212.597124-39.43404 52.344471 48.482719 42.03085 144.738719-23.043346 214.993151" fill="#FEEEFF" p-id="1900"></path><path d="M418.066405 393.523869l292.797072-67.958797s1.445647 40.002928-3.359791 53.020444l-294.48366 57.591634s-4.330248-21.684706 5.046379-42.653281" fill="#FDD7FF" p-id="1901"></path><path d="M470.665203 305.767739c65.067503-70.254431 160.252654-87.910065 212.597124-39.43404 1.298405 1.204706 2.52319 2.456261 3.747974 3.71451a98.397699 98.397699 0 0 0-10.206536-11.09668c-52.337778-48.476026-147.529621-30.827085-212.597124 39.43404-63.461229 68.514301-74.812235 161.731765-26.791321 211.271947-40.350954-50.999216-27.17281-138.641569 33.249883-203.889777" fill="#D513EA" p-id="1902"></path><path d="M720.03932 255.732288c-2.777516-2.583425-5.682196-4.95268-8.647111-7.241621 57.497935 61.774641 45.189856 173.303634-29.81647 254.293333-74.424052 80.360575-183.55702 101.442928-249.708759 50.370092 2.108235 2.275556 4.283399 4.484183 6.579033 6.612496 64.926954 60.128209 180.598797 40.826144 258.362562-43.141856 77.757072-83.954614 88.157699-200.764235 23.230745-260.899137" fill="#EC69FF" p-id="1903"></path><path d="M414.351895 442.62902l284.243661-35.364811s-8.192 23.377987-14.938353 30.606222l-268.582484 14.991896s-0.368105-1.378719-0.729516-10.24" fill="#FDD7FF" p-id="1904"></path><path d="M370.206118 713.547294c-8.687268-9.804967-29.113725-5.896366-45.631582 8.734118-16.511163 14.630484-22.849255 34.441203-14.161987 44.239477 8.687268 9.81166 29.113725 5.903059 45.624889-8.727425 16.511163-14.630484 22.855948-34.441203 14.16868-44.24617" fill="#F9C2FF" p-id="1905"></path></svg>